<?xml version="1.0" encoding="iso-8859-1"?>
<!-- Generator: Adobe Illustrator 22.1.0, SVG Export Plug-In . SVG Version: 6.00 Build 0)  -->
<svg version="1.1" id="Layer_1" xmlns="http://www.w3.org/2000/svg" xmlns:xlink="http://www.w3.org/1999/xlink" x="0px" y="0px"
	 viewBox="-49 141 512 512" style="enable-background:new -49 141 512 512;" xml:space="preserve">
<path style="fill:#FFFFFF;" d="M176.147,622.145C52.001,622.145-49,521.146-49,397S52.001,171.853,176.147,171.853
	c49.167,0,95.87,15.565,135.058,45.012c6.04,4.539,7.257,13.115,2.717,19.154c-4.539,6.04-13.113,7.256-19.154,2.718
	c-34.41-25.858-75.429-39.525-118.62-39.525C67.086,199.213-21.64,287.94-21.64,397s88.726,197.787,197.787,197.787
	c109.06,0,197.786-88.726,197.786-197.787c0-4.761-0.17-9.536-0.506-14.191c-0.542-7.536,5.126-14.085,12.662-14.628
	c7.546-0.531,14.085,5.126,14.628,12.661c0.382,5.308,0.576,10.744,0.576,16.159C401.292,521.146,300.292,622.145,176.147,622.145z"
	/>
<path style="fill:#FFFFFF;" d="M174.811,536.161c-9.056,0-18.112-3.447-25.007-10.342L29.463,405.477
	c-20.808-20.808-20.808-54.666,0-75.474c20.808-20.807,54.666-20.807,75.474,0l69.874,69.875l197.11-197.108l0,0
	c20.808-20.807,54.666-20.807,75.474,0c20.806,20.808,20.806,54.665,0,75.473L199.819,525.819
	C192.925,532.713,183.869,536.161,174.811,536.161z M67.2,341.746c-6.661,0-13.32,2.534-18.39,7.606
	c-10.141,10.141-10.141,26.64,0,36.781l120.341,120.341c3.12,3.12,8.2,3.12,11.32,0l247.577-247.577
	c10.139-10.141,10.139-26.64,0-36.781c-10.141-10.141-26.643-10.141-36.781,0L192.152,421.232
	c-4.631,4.631-10.789,7.182-17.341,7.182c-6.549,0-12.707-2.55-17.339-7.181L85.59,349.352
	C80.522,344.281,73.861,341.746,67.2,341.746z"/>
</svg>
