<?xml version="1.0" encoding="iso-8859-1"?>
<!-- Generator: Adobe Illustrator 22.1.0, SVG Export Plug-In . SVG Version: 6.00 Build 0)  -->
<svg version="1.1" id="Layer_1" xmlns="http://www.w3.org/2000/svg" xmlns:xlink="http://www.w3.org/1999/xlink" x="0px" y="0px"
	 viewBox="-49 244 512 306" style="enable-background:new -49 244 512 306;" xml:space="preserve">
<path style="fill:#FFFFFF;" d="M452.801,280.941H122.312c-5.633,0-10.199,4.566-10.199,10.199v19.235h-97.21
	c-5.633,0-10.199,4.566-10.199,10.199c0,5.633,4.566,10.199,10.199,10.199h97.21v132.452H54.012
	c-5.633,0-10.199,4.566-10.199,10.199s4.566,10.199,10.199,10.199h58.101v19.235c0,5.633,4.566,10.199,10.199,10.199h330.489
	c5.633,0,10.199-4.566,10.199-10.199V291.14C463,285.507,458.434,280.941,452.801,280.941z M427.641,301.34l-140.07,114.985
	L148.14,301.34H427.641z M132.511,492.66V314.89L281.068,437.4c1.884,1.553,4.186,2.331,6.489,2.331
	c2.295,0,4.591-0.772,6.471-2.316l148.574-121.965V492.66H132.511z"/>
<path style="fill:#FFFFFF;" d="M80.873,395.967c0-5.633-4.566-10.199-10.199-10.199H-38.801c-5.633,0-10.199,4.566-10.199,10.199
	s4.566,10.199,10.199,10.199H70.673C76.306,406.166,80.873,401.6,80.873,395.967z"/>
<path style="fill:#FFFFFF;" d="M20.355,463.227h-5.451c-5.633,0-10.199,4.566-10.199,10.199s4.566,10.199,10.199,10.199h5.451
	c5.633,0,10.199-4.566,10.199-10.199S25.988,463.227,20.355,463.227z"/>
</svg>
